<svg width="29" height="29" viewBox="0 0 29 29" fill="none" xmlns="http://www.w3.org/2000/svg">
<path fill-rule="evenodd" clip-rule="evenodd" d="M24.9577 24.9572C25.5906 24.3243 26.0843 23.5662 26.4071 22.7314C26.7178 21.932 26.9302 21.0186 26.9913 19.681C27.0524 18.3406 27.0669 17.9127 27.0669 14.4998C27.0669 11.0869 27.0524 10.6588 26.9913 9.3186C26.9302 7.98098 26.7178 7.06751 26.4071 6.26818C26.0916 5.42967 25.5969 4.67008 24.9577 4.04238C24.3299 3.40298 23.5703 2.90823 22.7317 2.59261C21.9323 2.28219 21.0189 2.06979 19.6812 2.00898C18.3411 1.94757 17.9131 1.93311 14.5001 1.93311C11.0872 1.93311 10.6591 1.94757 9.31895 2.00873C7.98132 2.06979 7.06785 2.28219 6.26852 2.59286C5.43001 2.90841 4.67042 3.40306 4.04272 4.04233C3.40331 4.66999 2.90852 5.42958 2.59286 6.26813C2.28243 7.06751 2.07003 7.98098 2.00922 9.3186C1.94782 10.6588 1.93335 11.0869 1.93335 14.4998C1.93335 17.9127 1.94782 18.3408 2.00922 19.681C2.07028 21.0186 2.28268 21.9321 2.59336 22.7314C2.9089 23.5699 3.40356 24.3295 4.04282 24.9572C4.67052 25.5965 5.43011 26.0911 6.26862 26.4067C7.068 26.7174 7.98147 26.9298 9.31905 26.9908C10.6594 27.052 11.0874 27.0664 14.5002 27.0664C17.9131 27.0664 18.3413 27.052 19.6814 26.9908C21.0191 26.9298 21.9325 26.7174 22.7319 26.4067C23.5666 26.0838 24.3248 25.5901 24.9577 24.9572ZM3.8657 13.0207C3.86619 13.4272 3.86677 13.9109 3.86677 14.4998C3.86677 15.0886 3.86619 15.5723 3.8657 15.9788V15.9789C3.86377 17.566 3.86327 17.977 3.90464 18.8797C3.95609 20.0116 4.01792 20.8433 4.20672 21.4701C4.38821 22.0726 4.59177 22.686 5.25636 23.4261C5.92094 24.1662 6.56197 24.5014 7.37849 24.7477C8.19501 24.994 9.22124 25.0469 10.1123 25.0875C11.1231 25.1337 11.5237 25.1336 13.6437 25.133L14.5001 25.1328C15.065 25.1328 15.5331 25.1334 15.9292 25.1338H15.9309H15.9324C17.5584 25.1356 17.9689 25.136 18.8805 25.0943C20.0123 25.0428 20.844 24.981 21.4708 24.7922C22.0734 24.6107 22.6867 24.4071 23.4268 23.7425C24.1669 23.078 24.5022 22.4369 24.7484 21.6204C24.9947 20.8039 25.0476 19.7777 25.0883 18.8865C25.1343 17.8771 25.1342 17.4776 25.1336 15.365V15.3649L25.1335 14.5005L25.1336 13.6441C25.1342 11.5241 25.1343 11.1235 25.0882 10.1127C25.0475 9.22164 24.9946 8.19541 24.7484 7.37889C24.5021 6.56237 24.1668 5.92134 23.4267 5.25675C22.6866 4.59217 22.0733 4.38861 21.4708 4.20712C20.8439 4.01831 20.0122 3.95649 18.8804 3.90503C17.9688 3.86327 17.5584 3.86372 15.9325 3.8655C15.5357 3.86593 15.0666 3.86645 14.5001 3.86645L13.6436 3.8663H13.6436C11.5237 3.86574 11.1231 3.86563 10.1123 3.91174C9.22124 3.9524 8.19501 4.00532 7.37849 4.25158C6.56197 4.49785 5.92094 4.8331 5.25636 5.5732C4.59177 6.3133 4.38821 6.92664 4.20672 7.52919C4.01792 8.15601 3.95609 8.98772 3.90464 10.1196C3.86327 11.0223 3.86377 11.4335 3.8657 13.0207ZM14.4999 9.6834C11.8399 9.6834 9.68359 11.8398 9.68359 14.4998C9.68359 17.1598 11.8399 19.3161 14.4999 19.3161C17.1599 19.3161 19.3163 17.1598 19.3163 14.4998C19.3163 11.8398 17.1599 9.6834 14.4999 9.6834ZM8.68359 14.4998C8.68359 11.2875 11.2877 8.6834 14.4999 8.6834C17.7122 8.6834 20.3163 11.2875 20.3163 14.4998C20.3163 17.712 17.7122 20.3161 14.4999 20.3161C11.2877 20.3161 8.68359 17.712 8.68359 14.4998ZM21.2082 9.24169C22.009 9.24169 22.6582 8.59251 22.6582 7.79169C22.6582 6.99088 22.009 6.34169 21.2082 6.34169C20.4073 6.34169 19.7582 6.99088 19.7582 7.79169C19.7582 8.59251 20.4073 9.24169 21.2082 9.24169Z" fill="#09090B"/>
</svg>
