<svg width="29" height="29" viewBox="0 0 29 29" fill="none" xmlns="http://www.w3.org/2000/svg">
<path fill-rule="evenodd" clip-rule="evenodd" d="M2.93335 1.93311C2.38106 1.93311 1.93335 2.38082 1.93335 2.9331V26.0664C1.93335 26.6187 2.38106 27.0664 2.93335 27.0664H26.0667C26.619 27.0664 27.0667 26.6187 27.0667 26.0664V2.93311C27.0667 2.38082 26.619 1.93311 26.0667 1.93311H2.93335ZM5.89669 11.5998H9.57002V23.1998H5.89669V11.5998ZM9.81169 7.74277C9.81169 8.8906 8.88119 9.82111 7.73336 9.82111C6.58552 9.82111 5.65502 8.8906 5.65502 7.74277C5.65502 6.59494 6.58552 5.66444 7.73336 5.66444C8.88119 5.66444 9.81169 6.59494 9.81169 7.74277ZM23.2 16.1569C23.2 12.6671 20.9446 11.3104 18.704 11.3104C17.9704 11.2743 17.24 11.4281 16.5856 11.7565C16.0887 12.0059 15.5685 12.5765 15.1673 13.5689H15.0641V11.6006H11.6V23.2089H15.2853V17.0348C15.232 16.4024 15.4343 15.5852 15.8483 15.0988C16.2624 14.6125 16.8546 14.4964 17.3036 14.4374H17.4437C18.6156 14.4374 19.4853 15.1629 19.4853 16.9912V23.2089H23.1705L23.2 16.1569Z" fill="#09090B"/>
</svg>
