<svg width="29" height="29" viewBox="0 0 29 29" fill="none" xmlns="http://www.w3.org/2000/svg">
<path fill-rule="evenodd" clip-rule="evenodd" d="M14.4513 9.07929C14.4513 5.99715 16.9491 3.49902 20.0294 3.49902C23.4552 3.49902 25.6249 6.61676 25.6249 9.66799C25.6249 16.5942 20.3509 24.6173 10.6745 24.6173C7.70817 24.6173 4.94617 23.7485 2.62056 22.2564C2.39267 22.1102 2.32331 21.8099 2.46127 21.5792C2.49957 21.3427 2.71786 21.1763 2.95808 21.2046C5.13894 21.4615 7.33928 21.0987 9.18099 20.0233C7.31332 19.565 5.81884 18.1572 5.23735 16.3431C5.1889 16.1919 5.22366 16.0264 5.32882 15.9076C5.43399 15.7887 5.594 15.734 5.74993 15.7636C5.83086 15.779 5.91257 15.7923 5.99502 15.8034C4.45594 14.8215 3.4356 13.0992 3.4356 11.1385V11.0731C3.4356 10.9137 3.51998 10.7661 3.65742 10.6853C3.79485 10.6044 3.96482 10.6023 4.10419 10.6798C4.29692 10.7869 4.49818 10.8807 4.70669 10.96C3.93798 10.0096 3.47703 8.79821 3.47703 7.48097C3.47703 6.56464 3.4905 5.5425 4.05611 4.63076C4.16232 4.45956 4.36473 4.38443 4.55008 4.43191C4.71576 4.41067 4.88831 4.4729 5.00164 4.61187C7.29709 7.42674 10.6649 9.32762 14.4844 9.6903C14.4626 9.48961 14.4513 9.28583 14.4513 9.07929ZM10.6745 23.6173C8.46239 23.6173 6.37323 23.0999 4.51559 22.1814C6.72895 22.14 8.9073 21.4811 10.6879 20.0856C10.8379 19.9681 10.8976 19.7689 10.837 19.5883C10.7765 19.4077 10.6088 19.2848 10.4183 19.2815C8.64921 19.2502 7.12067 18.2243 6.36972 16.7395C6.45335 16.7432 6.53744 16.7451 6.62197 16.7451C7.12404 16.7451 7.61159 16.6788 8.07709 16.5529C8.27867 16.4984 8.41627 16.3124 8.40938 16.1037C8.40249 15.895 8.25293 15.7184 8.04819 15.6773C6.14208 15.2947 4.66004 13.7408 4.38245 11.7996C4.94106 12.0125 5.54319 12.1379 6.17117 12.1585C6.37198 12.165 6.55282 12.0377 6.6143 11.8464C6.67579 11.6551 6.60302 11.4463 6.43599 11.3346C5.19424 10.5045 4.37703 9.08652 4.37703 7.48097C4.37703 6.78562 4.39407 6.18416 4.56929 5.64921C7.15276 8.59843 10.8764 10.5238 15.057 10.7343C15.2133 10.7421 15.3644 10.6763 15.465 10.5564C15.5657 10.4365 15.6044 10.2763 15.5696 10.1237C15.4926 9.78604 15.4513 9.4374 15.4513 9.07929C15.4513 6.54915 17.5017 4.49902 20.0294 4.49902C22.7465 4.49902 24.6249 6.99839 24.6249 9.66799C24.6249 16.1642 19.6838 23.6173 10.6745 23.6173ZM28.4295 6.10033C27.5192 6.5037 26.5413 6.77625 25.5132 6.89944C26.562 6.27149 27.3665 5.27506 27.7459 4.08894C26.7647 4.6711 25.6778 5.09409 24.5211 5.32085L25.8948 8.73095C26.8868 8.01361 27.7481 7.12075 28.4273 6.1036L28.4295 6.10033Z" fill="#09090B"/>
</svg>
