<svg width="51" height="51" viewBox="0 0 51 51" fill="none" xmlns="http://www.w3.org/2000/svg">
<path d="M46.75 21.25V34M12.75 26.5625V34C12.75 35.6908 14.0933 37.3123 16.4844 38.5078C18.8754 39.7034 22.1185 40.375 25.5 40.375C28.8815 40.375 32.1245 39.7034 34.5156 38.5078C36.9067 37.3123 38.25 35.6908 38.25 34V26.5625M45.5176 23.2095C45.898 23.0417 46.2208 22.766 46.446 22.4165C46.6713 22.067 46.789 21.6591 46.7847 21.2433C46.7805 20.8276 46.6543 20.4222 46.4219 20.0774C46.1894 19.7327 45.861 19.4637 45.4772 19.3038L27.2638 11.0078C26.7101 10.7552 26.1086 10.6245 25.5001 10.6245C24.8915 10.6245 24.29 10.7552 23.7363 11.0078L5.52506 19.2953C5.14674 19.461 4.82491 19.7333 4.59891 20.079C4.37292 20.4247 4.25256 20.8288 4.25256 21.2418C4.25256 21.6548 4.37292 22.0588 4.59891 22.4045C4.82491 22.7502 5.14674 23.0226 5.52506 23.1883L23.7363 31.4928C24.29 31.7453 24.8915 31.876 25.5001 31.876C26.1086 31.876 26.7101 31.7453 27.2638 31.4928L45.5176 23.2095Z" stroke="#1F65A6" stroke-width="2" stroke-linecap="round" stroke-linejoin="round"/>
</svg>
