<svg width="49" height="49" viewBox="0 0 49 49" fill="none" xmlns="http://www.w3.org/2000/svg">
<path d="M22.4583 34.7084L26.5417 38.7917C26.9439 39.1939 27.4213 39.5129 27.9468 39.7305C28.4722 39.9482 29.0354 40.0602 29.6042 40.0602C30.1729 40.0602 30.7361 39.9482 31.2616 39.7305C31.7871 39.5129 32.2645 39.1939 32.6667 38.7917C33.0689 38.3895 33.3879 37.9121 33.6055 37.3866C33.8232 36.8611 33.9352 36.2979 33.9352 35.7292C33.9352 35.1604 33.8232 34.5972 33.6055 34.0718C33.3879 33.5463 33.0689 33.0689 32.6667 32.6667M28.5838 28.5834L33.688 33.6875C34.5002 34.4998 35.6018 34.9561 36.7505 34.9561C37.8991 34.9561 39.0007 34.4998 39.813 33.6875C40.6252 32.8753 41.0815 31.7737 41.0815 30.625C41.0815 29.4764 40.6252 28.3748 39.813 27.5625L31.8913 19.6409C30.7429 18.4939 29.1861 17.8496 27.563 17.8496C25.9398 17.8496 24.3831 18.4939 23.2346 19.6409L21.438 21.4376C20.6257 22.2498 19.5241 22.7061 18.3755 22.7061C17.2268 22.7061 16.1252 22.2498 15.313 21.4376C14.5007 20.6253 14.0444 19.5237 14.0444 18.3751C14.0444 17.2264 14.5007 16.1248 15.313 15.3126L21.0501 9.57547C22.9125 7.71785 25.3414 6.53451 27.9522 6.21279C30.563 5.89106 33.2065 6.44933 35.4642 7.79922L36.4238 8.37088C37.2931 8.89557 38.3267 9.07754 39.323 8.8813L42.8755 8.16672M42.875 6.12502L44.9167 28.5834H40.8333M6.12501 6.12502L4.08334 28.5834L17.3542 41.8542C18.1664 42.6664 19.268 43.1227 20.4167 43.1227C21.5653 43.1227 22.667 42.6664 23.4792 41.8542C24.2914 41.042 24.7477 39.9403 24.7477 38.7917C24.7477 37.643 24.2914 36.5414 23.4792 35.7292M6.12501 8.16669H22.4583" stroke="#1F65A6" stroke-width="2" stroke-linecap="round" stroke-linejoin="round"/>
</svg>
