<svg width="44" height="38" viewBox="0 0 44 38" fill="none" xmlns="http://www.w3.org/2000/svg">
<path fill-rule="evenodd" clip-rule="evenodd" d="M15.6333 1.96655C15.6333 1.41427 16.081 0.966553 16.6333 0.966553H27.3667C27.919 0.966553 28.3667 1.41427 28.3667 1.96655V6.83322H41.0667C42.1528 6.83322 43.0333 7.71373 43.0333 8.79989V17.5999C43.0333 20.0721 41.8876 22.2769 40.1 23.7118V33.7332C40.1 35.6294 38.5628 37.1666 36.6667 37.1666H7.33333C5.43716 37.1666 3.9 35.6294 3.9 33.7332V23.7112C2.11245 22.2764 0.966667 20.0721 0.966667 17.5999V8.79989C0.966667 7.71373 1.84717 6.83322 2.93333 6.83322H15.6333V1.96655ZM27.3667 1.96655V6.83322H16.6333V1.96655L27.3667 1.96655ZM2.93333 7.83322H15.6333H16.1333H27.8667H28.3667H41.0667C41.6005 7.83322 42.0333 8.26601 42.0333 8.79989V17.5999C42.0333 19.8352 40.9606 21.8198 39.2997 23.0673C38.1577 23.9251 36.7389 24.4332 35.2 24.4332H22.5V21.9999C22.5 21.7237 22.2761 21.4999 22 21.4999C21.7239 21.4999 21.5 21.7237 21.5 21.9999V24.4332H8.8C7.26121 24.4332 5.8424 23.9246 4.70029 23.0668C3.03938 21.8192 1.96667 19.8351 1.96667 17.5999V8.79989C1.96667 8.26601 2.39946 7.83322 2.93333 7.83322ZM21.5 25.4332H8.8C7.38055 25.4332 6.04851 25.0549 4.9 24.3943V33.7332C4.9 35.0771 5.98944 36.1666 7.33333 36.1666H36.6667C38.0106 36.1666 39.1 35.0771 39.1 33.7332V24.3948C37.9514 25.0553 36.6194 25.4332 35.2 25.4332H22.5V27.8666C22.5 28.1427 22.2761 28.3666 22 28.3666C21.7239 28.3666 21.5 28.1427 21.5 27.8666V25.4332Z" fill="#1F65A6"/>
</svg>
