<svg width="41" height="42" viewBox="0 0 41 42" fill="none" xmlns="http://www.w3.org/2000/svg">
<path fill-rule="evenodd" clip-rule="evenodd" d="M10.3 0.600098C10.5761 0.600098 10.8 0.823955 10.8 1.1001V5.2001H30.2V1.1001C30.2 0.823955 30.4239 0.600098 30.7 0.600098C30.9761 0.600098 31.2 0.823955 31.2 1.1001V5.2001H38.7C39.5284 5.2001 40.2 5.87167 40.2 6.7001V39.7001C40.2 40.5285 39.5284 41.2001 38.7 41.2001H2.3C1.47157 41.2001 0.800003 40.5285 0.800003 39.7001V6.7001C0.800003 5.87167 1.47157 5.2001 2.3 5.2001H9.8V1.1001C9.8 0.823955 10.0239 0.600098 10.3 0.600098ZM30.2 6.2001V7.9001C30.2 8.17624 30.4239 8.4001 30.7 8.4001C30.9761 8.4001 31.2 8.17624 31.2 7.9001V6.2001H38.7C38.9761 6.2001 39.2 6.42395 39.2 6.7001V15.4001H1.8V6.7001C1.8 6.42396 2.02386 6.2001 2.3 6.2001H9.8V7.9001C9.8 8.17624 10.0239 8.4001 10.3 8.4001C10.5761 8.4001 10.8 8.17624 10.8 7.9001V6.2001H30.2ZM1.8 16.4001V39.7001C1.8 39.9762 2.02386 40.2001 2.3 40.2001H38.7C38.9761 40.2001 39.2 39.9762 39.2 39.7001V16.4001H1.8ZM18.8 20.3001C18.8 20.024 19.0239 19.8001 19.3 19.8001H21.7C21.9761 19.8001 22.2 20.024 22.2 20.3001V22.7001C22.2 22.9762 21.9761 23.2001 21.7 23.2001H19.3C19.0239 23.2001 18.8 22.9762 18.8 22.7001V20.3001ZM26.1 19.8001C25.8239 19.8001 25.6 20.024 25.6 20.3001V22.7001C25.6 22.9762 25.8239 23.2001 26.1 23.2001H28.5C28.7761 23.2001 29 22.9762 29 22.7001V20.3001C29 20.024 28.7761 19.8001 28.5 19.8001H26.1ZM32.4 20.3001C32.4 20.024 32.6239 19.8001 32.9 19.8001H35.3C35.5761 19.8001 35.8 20.024 35.8 20.3001V22.7001C35.8 22.9762 35.5761 23.2001 35.3 23.2001H32.9C32.6239 23.2001 32.4 22.9762 32.4 22.7001V20.3001ZM32.9 26.6001C32.6239 26.6001 32.4 26.824 32.4 27.1001V29.5001C32.4 29.7762 32.6239 30.0001 32.9 30.0001H35.3C35.5761 30.0001 35.8 29.7762 35.8 29.5001V27.1001C35.8 26.824 35.5761 26.6001 35.3 26.6001H32.9ZM25.6 27.1001C25.6 26.824 25.8239 26.6001 26.1 26.6001H28.5C28.7761 26.6001 29 26.824 29 27.1001V29.5001C29 29.7762 28.7761 30.0001 28.5 30.0001H26.1C25.8239 30.0001 25.6 29.7762 25.6 29.5001V27.1001ZM19.3 26.6001C19.0239 26.6001 18.8 26.824 18.8 27.1001V29.5001C18.8 29.7762 19.0239 30.0001 19.3 30.0001H21.7C21.9761 30.0001 22.2 29.7762 22.2 29.5001V27.1001C22.2 26.824 21.9761 26.6001 21.7 26.6001H19.3ZM12 27.1001C12 26.824 12.2239 26.6001 12.5 26.6001H14.9C15.1761 26.6001 15.4 26.824 15.4 27.1001V29.5001C15.4 29.7762 15.1761 30.0001 14.9 30.0001H12.5C12.2239 30.0001 12 29.7762 12 29.5001V27.1001ZM5.7 26.6001C5.42386 26.6001 5.2 26.824 5.2 27.1001V29.5001C5.2 29.7762 5.42386 30.0001 5.7 30.0001H8.1C8.37615 30.0001 8.6 29.7762 8.6 29.5001V27.1001C8.6 26.824 8.37615 26.6001 8.1 26.6001H5.7ZM5.2 33.9001C5.2 33.624 5.42386 33.4001 5.7 33.4001H8.1C8.37615 33.4001 8.6 33.624 8.6 33.9001V36.3001C8.6 36.5762 8.37615 36.8001 8.1 36.8001H5.7C5.42386 36.8001 5.2 36.5762 5.2 36.3001V33.9001ZM12.5 33.4001C12.2239 33.4001 12 33.624 12 33.9001V36.3001C12 36.5762 12.2239 36.8001 12.5 36.8001H14.9C15.1761 36.8001 15.4 36.5762 15.4 36.3001V33.9001C15.4 33.624 15.1761 33.4001 14.9 33.4001H12.5ZM18.8 33.9001C18.8 33.624 19.0239 33.4001 19.3 33.4001H21.7C21.9761 33.4001 22.2 33.624 22.2 33.9001V36.3001C22.2 36.5762 21.9761 36.8001 21.7 36.8001H19.3C19.0239 36.8001 18.8 36.5762 18.8 36.3001V33.9001ZM26.1 33.4001C25.8239 33.4001 25.6 33.624 25.6 33.9001V36.3001C25.6 36.5762 25.8239 36.8001 26.1 36.8001H28.5C28.7761 36.8001 29 36.5762 29 36.3001V33.9001C29 33.624 28.7761 33.4001 28.5 33.4001H26.1Z" fill="#1F65A6"/>
</svg>
