<svg width="23" height="38" viewBox="0 0 23 38" fill="none" xmlns="http://www.w3.org/2000/svg">
<path d="M10.8428 0V4.69343H4.68933C2.11705 4.69343 0.0606269 5.68181 0.0606269 7.95958V11.105C0.0606269 15.3828 -0.757064 16.8667 3.61349 17.9361L18.8268 22.0881C19.7681 22.3397 21.1129 22.8735 21.1129 24.8171V30.0404C21.1129 30.9211 20.3733 31.6131 19.4319 31.6131H2.62209C1.81521 31.6131 0.941101 31.7941 0.941101 31.2357V25.3223H0.103877V31.6131C0.0606079 32.6338 0.137442 33.3 0.683948 33.3066C1.23045 33.3131 0.672144 33.3066 2.62209 33.3066H10.7755V38H11.2785V33.3066H19.4319C21.0714 33.3066 22.0606 32.3811 22.0606 30.0404V26.895C22.0606 22.6172 21.9312 22.2032 17.5606 21.1338L2.06061 16.6338C0.560608 16.6338 0.941101 12.1159 0.941101 11.1722L1.00834 7.95958C1.00834 7.07886 1.74797 6.38687 2.68932 6.38687H19.4992C20.2388 6.38687 20.9112 6.6385 21.1802 6.76432V12.6777H22.0174V6.38687C22.0174 6.32591 22.1254 4.70617 21.0606 4.69343C20.5141 4.6869 21.4491 4.69343 19.4992 4.69343H11.3457V0H10.8428Z" fill="#1F65A6"/>
</svg>
