<svg width="44" height="42" viewBox="0 0 44 42" fill="none" xmlns="http://www.w3.org/2000/svg">
<path fill-rule="evenodd" clip-rule="evenodd" d="M21.4794 1.25171L21.4585 1.30199L15.9868 14.4575C15.9436 14.5614 15.8459 14.6323 15.7338 14.6413L1.5313 15.7799L1.47701 15.7843L1.14547 15.8109L0.844681 15.835C0.578684 15.8563 0.470826 16.1883 0.673487 16.3619L0.902658 16.5582L1.15525 16.7745L1.19662 16.81L12.0174 26.0791C12.1028 26.1523 12.1402 26.2672 12.114 26.3766L8.80812 40.2358L8.79548 40.2888L8.71831 40.6123L8.6483 40.9058C8.58638 41.1654 8.86876 41.3705 9.09649 41.2314L9.354 41.0741L9.63785 40.9008L9.68433 40.8724L21.8436 33.4455C21.9396 33.3869 22.0604 33.3869 22.1564 33.4455L34.3157 40.8724L34.3622 40.9008L34.646 41.0741L34.9035 41.2314C35.1312 41.3705 35.4136 41.1654 35.3517 40.9058L35.2817 40.6123L35.2045 40.2888L35.1919 40.2358L31.8859 26.3766C31.8598 26.2672 31.8972 26.1523 31.9826 26.0791L42.8034 16.81L42.8447 16.7745L43.0973 16.5582L43.3265 16.3619C43.5292 16.1883 43.4213 15.8563 43.1553 15.835L42.8545 15.8109L42.523 15.7843L42.4687 15.7799L28.2662 14.6413C28.1541 14.6323 28.0564 14.5614 28.0132 14.4575L22.5415 1.30199L22.5206 1.25171L22.3929 0.944609L22.277 0.665992C22.1745 0.419605 21.8255 0.419604 21.723 0.665992L21.6071 0.94461L21.4794 1.25171ZM22 2.60397L16.9101 14.8415C16.7229 15.2916 16.2996 15.5992 15.8137 15.6381L2.60221 16.6973L12.668 25.3197C13.0382 25.6368 13.1999 26.1344 13.0868 26.6086L10.0115 39.5008L21.3224 32.5921C21.7384 32.338 22.2616 32.338 22.6776 32.5921L33.9885 39.5008L30.9132 26.6086C30.8001 26.1344 30.9618 25.6368 31.332 25.3197L41.3978 16.6973L28.1863 15.6381C27.7004 15.5992 27.2771 15.2916 27.0899 14.8415L22 2.60397Z" fill="#1F65A6"/>
</svg>
